<?xml version="1.0" encoding="utf-8"?>
<!-- Generator: Adobe Illustrator 25.1.0, SVG Export Plug-In . SVG Version: 6.00 Build 0)  -->
<svg version="1.1" id="Layer_1" xmlns="http://www.w3.org/2000/svg" xmlns:xlink="http://www.w3.org/1999/xlink" x="0px" y="0px"
	 viewBox="0 0 185.62 183.32" style="enable-background:new 0 0 185.62 183.32;" xml:space="preserve">
<style type="text/css">
	.st0{fill:none;stroke:#FFF3DE;stroke-width:2;stroke-linecap:round;stroke-miterlimit:10;}
	.st1{fill:#DF7934;stroke:#414042;stroke-miterlimit:10;}
	.st2{fill:#414042;stroke:#414042;stroke-width:3;stroke-miterlimit:10;}
	.st3{fill:#6D6E71;stroke:#6D6E71;stroke-miterlimit:10;}
	.st4{fill:#DF7934;stroke:#58595B;stroke-miterlimit:10;}
	.st5{fill:#E3713C;stroke:#58595B;stroke-miterlimit:10;}
	.st6{fill:#58595B;stroke:#58595B;stroke-miterlimit:10;}
	.st7{fill:none;stroke:#58595B;stroke-miterlimit:10;}
	.st8{enable-background:new    ;}
	.st9{fill:#FFF3DE;}
	.st10{fill:#FFF6D7;}
	.st11{font-family:'Century';}
	.st12{font-size:7.0186px;}
</style>
<g>
	<g>
		<g>
			<line class="st0" x1="92.06" y1="8.96" x2="92.06" y2="168.79"/>
			<line class="st0" x1="84.4" y1="21.21" x2="87.72" y2="52.36"/>
			<line class="st0" x1="73.93" y1="13.04" x2="82.1" y2="45.47"/>
			<line class="st0" x1="68.32" y1="23.76" x2="76.49" y2="45.21"/>
			<line class="st0" x1="58.1" y1="17.38" x2="70.87" y2="45.21"/>
			<line class="st0" x1="56.06" y1="29.64" x2="64.23" y2="43.68"/>
			<line class="st0" x1="50.19" y1="30.15" x2="56.06" y2="42.15"/>
			<line class="st0" x1="99.85" y1="20.83" x2="96.53" y2="51.98"/>
			<line class="st0" x1="110.32" y1="12.66" x2="102.15" y2="45.08"/>
			<line class="st0" x1="115.93" y1="23.38" x2="107.76" y2="44.83"/>
			<line class="st0" x1="126.15" y1="17" x2="113.38" y2="44.83"/>
			<line class="st0" x1="128.19" y1="29.25" x2="120.02" y2="43.3"/>
			<line class="st0" x1="134.06" y1="29.76" x2="128.19" y2="41.76"/>
			<line class="st0" x1="43.55" y1="137.38" x2="75.98" y2="111.34"/>
			<line class="st0" x1="43.55" y1="151.17" x2="78.02" y2="114.4"/>
			<line class="st0" x1="55.55" y1="147.59" x2="79.3" y2="117.98"/>
			<line class="st0" x1="59.13" y1="157.81" x2="81.34" y2="119"/>
			<line class="st0" x1="67.3" y1="159.85" x2="83.13" y2="121.04"/>
			<line class="st0" x1="74.45" y1="165.21" x2="85.93" y2="122.83"/>
			<line class="st0" x1="84.4" y1="160.36" x2="87.98" y2="132.53"/>
			<line class="st0" x1="13.93" y1="71" x2="20.06" y2="73.04"/>
			<line class="st0" x1="19.81" y1="53.89" x2="29" y2="58.49"/>
			<line class="st0" x1="141.47" y1="138.02" x2="109.04" y2="111.98"/>
			<line class="st0" x1="141.47" y1="151.81" x2="107" y2="115.04"/>
			<line class="st0" x1="129.47" y1="148.23" x2="105.72" y2="118.62"/>
			<line class="st0" x1="125.89" y1="158.45" x2="103.68" y2="119.64"/>
			<line class="st0" x1="117.72" y1="160.49" x2="101.89" y2="121.68"/>
			<line class="st0" x1="110.57" y1="165.85" x2="99.08" y2="123.47"/>
			<line class="st0" x1="100.62" y1="161" x2="97.04" y2="133.17"/>
			<line class="st0" x1="170.32" y1="106.87" x2="163.93" y2="105.34"/>
			<line class="st0" x1="171.08" y1="71.64" x2="164.96" y2="73.68"/>
			<line class="st0" x1="165.21" y1="54.53" x2="156.02" y2="59.13"/>
			<line class="st0" x1="152.57" y1="117.98" x2="164.57" y2="123.59"/>
			<line class="st0" x1="144.4" y1="121.55" x2="152.32" y2="126.4"/>
			<line class="st0" x1="140.57" y1="127.68" x2="149" y2="134.83"/>
			<line class="st0" x1="14.51" y1="106.68" x2="20.89" y2="105.15"/>
			<line class="st0" x1="32.25" y1="117.79" x2="20.25" y2="123.4"/>
			<line class="st0" x1="40.42" y1="121.36" x2="32.51" y2="126.21"/>
			<line class="st0" x1="44.25" y1="127.49" x2="35.83" y2="134.64"/>
		</g>
		<polygon class="st1" points="17.87,34.27 166.98,34.27 91.99,161.93 		"/>
		<polygon class="st1" points="28.64,39.68 158.08,39.68 92.98,152.02 		"/>
		<path class="st2" d="M163.36,84.24h-1.94c-0.47-7.86-1.97-13.72-3.75-13.72h-5.04c-0.88-5.73-2.14-9.35-3.55-9.35h-6.91
			c-1.26-5.86-2.93-9.46-4.76-9.46h-11.74c-3.58,0-6.54,13.43-7.07,30.98H65.41c-0.53-17.54-3.49-30.98-7.07-30.98H46.6
			c-1.83,0-3.5,3.59-4.76,9.46h-6.91c-1.41,0-2.67,3.62-3.55,9.35h-5.04c-1.79,0-3.29,5.85-3.75,13.72h-1.94
			c-1.37,0-2.48,2.45-2.48,5.42s1.11,5.37,2.48,5.37h1.97c0.5,7.54,1.98,13,3.72,13h4.97c0.88,5.93,2.18,9.69,3.62,9.69h7.32
			c1.2,4.72,2.71,7.54,4.34,7.54h10.76c0.14,0.04,0.27,0.06,0.41,0.06s0.27-0.02,0.41-0.06h0.16c3.38,0,6.21-12.24,6.95-28.43h53.41
			c0.75,16.19,3.58,28.43,6.95,28.43h0.16c0.14,0.04,0.27,0.06,0.41,0.06s0.27-0.02,0.41-0.06h10.76c1.63,0,3.14-2.81,4.34-7.54
			h7.32c1.45,0,2.74-3.75,3.62-9.69h4.97c1.74,0,3.22-5.46,3.72-13h1.97c1.37,0,2.48-2.4,2.48-5.37S164.73,84.24,163.36,84.24z"/>
		<g>
			<g>
				<g>
					<g>
						<path class="st3" d="M24.71,95.03c1.37,0,2.48-2.45,2.48-5.42c0-2.96-1.11-5.37-2.48-5.37h-4.07c-1.37,0-2.48,2.45-2.48,5.42
							c0,2.96,1.11,5.37,2.48,5.37H24.71z"/>
					</g>
					<g>
						<path class="st4" d="M32.75,108.02c2.16,0,3.91-8.53,3.91-18.84s-1.75-18.66-3.91-18.66h-6.42c-2.16,0-3.91,8.53-3.91,18.84
							s1.75,18.66,3.91,18.66C26.33,108.02,32.75,108.02,32.75,108.02z"/>
					</g>
					<g>
						<path class="st4" d="M42.82,117.71c2.65,0,4.8-12.86,4.8-28.4s-2.15-28.14-4.8-28.14h-7.89c-2.65,0-4.8,12.86-4.8,28.4
							s2.15,28.14,4.8,28.14H42.82z"/>
					</g>
					<g>
						<path class="st4" d="M58.34,125.25c3.95,0,7.15-16.72,7.15-36.94c0-20.21-3.2-36.6-7.15-36.6H46.6
							c-3.95,0-7.15,16.72-7.15,36.94c0,20.21,3.2,36.6,7.15,36.6C46.6,125.25,58.34,125.25,58.34,125.25z"/>
						<ellipse class="st5" cx="57.77" cy="88.72" rx="7.15" ry="36.6"/>
						<ellipse class="st6" cx="58.26" cy="88.52" rx="2.51" ry="15.7"/>
					</g>
				</g>
				<line class="st7" x1="52.98" y1="113.93" x2="41.49" y2="113.93"/>
				<line class="st7" x1="40.47" y1="109.57" x2="31.79" y2="109.57"/>
				<line class="st7" x1="30.77" y1="103.2" x2="24.13" y2="103.2"/>
			</g>
			<g>
				<g>
					<g>
						<path class="st3" d="M159.28,95.03c-1.37,0-2.48-2.45-2.48-5.42c0-2.96,1.11-5.37,2.48-5.37h4.07c1.37,0,2.48,2.45,2.48,5.42
							c0,2.96-1.11,5.37-2.48,5.37H159.28z"/>
					</g>
					<g>
						<path class="st4" d="M151.25,108.02c-2.16,0-3.91-8.53-3.91-18.84s1.75-18.66,3.91-18.66h6.42c2.16,0,3.91,8.53,3.91,18.84
							s-1.75,18.66-3.91,18.66C157.67,108.02,151.25,108.02,151.25,108.02z"/>
					</g>
					<g>
						<path class="st4" d="M141.18,117.71c-2.65,0-4.8-12.86-4.8-28.4s2.15-28.14,4.8-28.14h7.89c2.65,0,4.8,12.86,4.8,28.4
							s-2.15,28.14-4.8,28.14H141.18z"/>
					</g>
					<g>
						<path class="st4" d="M125.66,125.25c-3.95,0-7.15-16.72-7.15-36.94c0-20.21,3.2-36.6,7.15-36.6h11.74
							c3.95,0,7.15,16.72,7.15,36.94c0,20.21-3.2,36.6-7.15,36.6C137.4,125.25,125.66,125.25,125.66,125.25z"/>
						<ellipse class="st5" cx="126.23" cy="88.72" rx="7.15" ry="36.6"/>
						<ellipse class="st6" cx="125.74" cy="88.52" rx="2.51" ry="15.7"/>
					</g>
				</g>
				<line class="st7" x1="131.02" y1="113.93" x2="142.51" y2="113.93"/>
				<line class="st7" x1="143.53" y1="109.57" x2="152.21" y2="109.57"/>
				<line class="st7" x1="153.23" y1="103.2" x2="159.87" y2="103.2"/>
			</g>
			<path class="st4" d="M59.87,96.82h64c1.41,0,2.55-1.14,2.55-2.55v-9.02c0-1.41-1.14-2.55-2.55-2.55h-64
				c-1.41,0-2.55,1.14-2.55,2.55v9.02C57.32,95.68,58.46,96.82,59.87,96.82z"/>
		</g>
	</g>
	<g>
		<g class="st8">
			<path class="st9" d="M71.97,48.77c0.48-0.1,0.89,0.02,1.23,0.36c0.27,0.27,0.45,0.63,0.54,1.07c0.16,0.8,0.12,1.75-0.14,2.86
				c-0.23,0.96-0.58,1.85-1.04,2.68c-0.31,0.53-0.58,0.82-0.81,0.87c-0.15,0.03-0.31-0.03-0.47-0.17c-0.12-0.1-0.19-0.23-0.23-0.39
				c-0.06-0.29,0.09-0.66,0.45-1.12c0.51-0.65,0.88-1.33,1.12-2.02c0.35-1.01,0.47-1.83,0.34-2.45c-0.05-0.25-0.14-0.43-0.26-0.54
				s-0.28-0.14-0.47-0.1c-0.39,0.08-0.89,0.52-1.48,1.33c-0.67,0.91-1.34,2.09-2,3.55c-0.84,1.85-1.4,3.63-1.69,5.32
				c-0.3,1.75-0.33,3.21-0.09,4.35c0.11,0.55,0.35,0.99,0.71,1.32c0.4,0.37,0.82,0.51,1.26,0.42c0.77-0.16,1.61-1.05,2.5-2.67
				c0.27-0.49,0.57-1.18,0.91-2.08c0.23-0.58,0.36-0.98,0.41-1.21c0.06-0.26,0.16-0.4,0.3-0.43c0.16-0.03,0.25,0.04,0.29,0.21
				c0.08,0.37-0.16,1.28-0.69,2.73c-0.45,1.21-1,2.24-1.67,3.09c-0.75,0.95-1.52,1.5-2.32,1.67c-0.84,0.17-1.58-0.13-2.21-0.89
				c-0.41-0.49-0.68-1.09-0.83-1.79c-0.36-1.77-0.09-4.16,0.82-7.16c0.78-2.55,1.71-4.67,2.81-6.36
				C70.21,49.76,71.11,48.95,71.97,48.77z"/>
			<path class="st9" d="M77.25,55.91c0.59-0.12,0.97,0.23,1.13,1.05c0.22,1.09,0.07,2.56-0.47,4.42c-0.59,2.01-1.33,3.11-2.23,3.29
				c-0.42,0.08-0.77-0.07-1.05-0.48c-0.15-0.2-0.25-0.46-0.31-0.77c-0.21-1.05-0.13-2.25,0.25-3.62c0.35-1.26,0.87-2.29,1.53-3.08
				C76.49,56.26,76.87,55.99,77.25,55.91z M77.09,60.79c-0.21-0.13-0.33-0.24-0.35-0.33c-0.01-0.07,0.06-0.27,0.23-0.61
				c0.48-0.96,0.66-1.7,0.56-2.2c-0.01-0.07-0.04-0.13-0.09-0.19c-0.08-0.11-0.18-0.15-0.31-0.13c-0.23,0.05-0.51,0.37-0.85,0.97
				c-0.44,0.77-0.74,1.54-0.9,2.3c-0.19,0.87-0.23,1.56-0.12,2.09c0.03,0.14,0.09,0.26,0.17,0.35c0.12,0.13,0.26,0.18,0.4,0.15
				c0.34-0.07,0.65-0.44,0.93-1.11c0.12-0.28,0.21-0.56,0.26-0.85C77.07,60.94,77.1,60.8,77.09,60.79z"/>
			<path class="st9" d="M80.85,59.17c0.45-0.85,0.87-1.52,1.24-2.02c0.57-0.76,0.97-1.16,1.21-1.21c0.11-0.02,0.23,0,0.33,0.08
				c0.1,0.07,0.16,0.16,0.18,0.27c0.03,0.16-0.04,0.44-0.22,0.84c-0.27,0.64-0.44,1.17-0.51,1.59c1.28-2.27,2.23-3.47,2.85-3.6
				c0.13-0.03,0.25,0,0.36,0.07c0.12,0.08,0.2,0.19,0.23,0.34c0.05,0.23-0.05,0.56-0.28,0.98c-1.03,1.88-1.44,3.33-1.23,4.35
				c0.09,0.42,0.21,0.71,0.38,0.86l0.36,0.35c0.07,0.06,0.12,0.15,0.14,0.26c0.03,0.13,0.01,0.26-0.06,0.4
				c-0.08,0.15-0.19,0.24-0.33,0.27c-0.24,0.05-0.49-0.08-0.76-0.38c-0.33-0.36-0.55-0.82-0.66-1.38c-0.15-0.75-0.12-1.54,0.1-2.38
				c0.07-0.3,0.21-0.7,0.42-1.22c-0.5,0.65-0.97,1.5-1.42,2.55c-0.3,0.71-0.55,1.49-0.73,2.33c-0.09,0.4-0.25,0.63-0.47,0.67
				c-0.24,0.05-0.4-0.08-0.46-0.39c-0.07-0.34-0.01-1.07,0.18-2.2c0.11-0.65,0.26-1.34,0.46-2.07c-1,1.33-1.62,2.99-1.86,4.97
				c-0.07,0.44-0.23,0.69-0.48,0.74c-0.11,0.02-0.22-0.01-0.31-0.09c-0.1-0.08-0.16-0.19-0.19-0.33c-0.1-0.48-0.04-1.41,0.17-2.77
				c0.22-1.44,0.53-2.75,0.94-3.95c0.28-0.83,0.53-1.28,0.77-1.32c0.21-0.04,0.35,0.07,0.4,0.33c0.02,0.11-0.05,0.43-0.22,0.94
				C81.09,58.02,80.91,58.73,80.85,59.17z"/>
			<path class="st9" d="M88.67,57.57c0.46-0.85,0.87-1.52,1.24-2.02c0.57-0.76,0.97-1.16,1.21-1.21c0.12-0.02,0.23,0,0.33,0.08
				c0.1,0.07,0.16,0.16,0.18,0.27c0.03,0.16-0.04,0.44-0.22,0.84c-0.27,0.64-0.44,1.17-0.51,1.59c1.28-2.27,2.23-3.47,2.85-3.6
				c0.13-0.03,0.25,0,0.36,0.07c0.12,0.08,0.2,0.19,0.23,0.34c0.05,0.23-0.05,0.56-0.28,0.98c-1.03,1.88-1.44,3.33-1.23,4.35
				c0.09,0.42,0.21,0.7,0.38,0.86l0.36,0.35c0.07,0.06,0.12,0.15,0.14,0.26c0.03,0.13,0.01,0.26-0.06,0.4
				c-0.08,0.15-0.19,0.24-0.33,0.27c-0.24,0.05-0.49-0.08-0.76-0.38c-0.33-0.36-0.55-0.82-0.66-1.38c-0.15-0.75-0.12-1.54,0.09-2.38
				c0.07-0.3,0.21-0.7,0.42-1.22c-0.5,0.65-0.97,1.5-1.42,2.55c-0.3,0.71-0.55,1.49-0.73,2.33c-0.09,0.4-0.25,0.63-0.47,0.67
				c-0.24,0.05-0.4-0.08-0.46-0.39c-0.07-0.34-0.01-1.07,0.18-2.2c0.11-0.65,0.26-1.34,0.46-2.07c-1,1.33-1.62,2.99-1.86,4.97
				c-0.07,0.44-0.23,0.69-0.48,0.74c-0.12,0.02-0.22-0.01-0.31-0.09c-0.1-0.08-0.16-0.19-0.19-0.33c-0.1-0.48-0.04-1.41,0.17-2.77
				c0.22-1.44,0.53-2.76,0.94-3.95c0.28-0.83,0.53-1.28,0.77-1.32c0.21-0.04,0.35,0.07,0.4,0.33c0.02,0.11-0.05,0.43-0.22,0.94
				C88.91,56.42,88.73,57.12,88.67,57.57z"/>
			<path class="st9" d="M98.09,57.95c-0.21,0.55-0.4,1-0.58,1.35c-0.31,0.61-0.67,0.96-1.08,1.04c-0.35,0.07-0.66-0.05-0.93-0.37
				c-0.19-0.23-0.32-0.52-0.39-0.87c-0.22-1.06-0.07-2.35,0.44-3.89c0.23-0.71,0.5-1.28,0.79-1.69c0.22-0.33,0.42-0.51,0.6-0.55
				c0.1-0.02,0.2,0.01,0.31,0.09c0.09,0.08,0.14,0.16,0.16,0.25c0.03,0.16-0.05,0.44-0.24,0.84c-0.43,0.93-0.73,1.77-0.9,2.52
				c-0.19,0.87-0.25,1.53-0.15,1.98c0.02,0.12,0.07,0.2,0.12,0.25c0.06,0.05,0.13,0.07,0.22,0.05c0.37-0.08,0.75-0.78,1.16-2.11
				c0.21-0.69,0.36-1.44,0.45-2.25c0.04-0.44,0.14-0.84,0.28-1.2c0.14-0.33,0.31-0.51,0.5-0.55c0.11-0.02,0.21,0.01,0.32,0.1
				c0.12,0.1,0.19,0.21,0.22,0.35c0.06,0.3-0.05,1.01-0.33,2.15c-0.19,0.78-0.24,1.41-0.14,1.89c0.1,0.51,0.31,0.92,0.62,1.23
				c0.08,0.09,0.31,0.2,0.69,0.35c0.18,0.07,0.29,0.23,0.34,0.47c0.03,0.15,0,0.29-0.09,0.42c-0.09,0.13-0.21,0.21-0.37,0.24
				c-0.36,0.07-0.72-0.02-1.08-0.29c-0.33-0.24-0.58-0.63-0.77-1.18C98.25,58.51,98.18,58.3,98.09,57.95z"/>
			<path class="st9" d="M102.32,54.64c0.07-0.12,0.14-0.23,0.21-0.35c1.16-1.98,1.99-3.02,2.5-3.13c0.28-0.06,0.46,0.09,0.53,0.44
				c0.05,0.25-0.02,0.56-0.2,0.95c-1,2.11-1.35,3.86-1.06,5.26c0.09,0.45,0.29,0.86,0.59,1.23c0.14,0.17,0.22,0.31,0.24,0.41
				c0.02,0.1,0,0.2-0.07,0.31c-0.07,0.13-0.17,0.21-0.3,0.24c-0.29,0.06-0.59-0.1-0.87-0.49c-0.28-0.36-0.47-0.83-0.59-1.4
				c-0.23-1.11-0.11-2.41,0.34-3.9c-0.83,0.91-1.48,2.36-1.94,4.35c-0.13,0.48-0.31,0.74-0.55,0.79c-0.12,0.02-0.23,0-0.33-0.09
				c-0.12-0.09-0.21-0.23-0.24-0.41c-0.09-0.44,0.11-1.69,0.61-3.75c0.27-1.11,0.49-1.93,0.67-2.44c0.18-0.51,0.37-0.78,0.56-0.82
				c0.09-0.02,0.19,0.01,0.3,0.09c0.12,0.09,0.2,0.21,0.23,0.36c0.04,0.18-0.01,0.46-0.15,0.84
				C102.57,53.69,102.42,54.2,102.32,54.64z"/>
			<path class="st9" d="M108.17,50.16c0.12-0.02,0.23,0.01,0.33,0.1c0.08,0.08,0.12,0.16,0.14,0.25c0.03,0.15-0.02,0.42-0.16,0.8
				c-0.47,1.47-0.78,2.67-0.92,3.59c-0.16,0.95-0.27,1.91-0.34,2.89c-0.03,0.43-0.17,0.68-0.41,0.73c-0.14,0.03-0.27-0.01-0.38-0.13
				c-0.1-0.09-0.16-0.2-0.19-0.32c-0.05-0.25,0.01-1.11,0.18-2.6c0.13-1.17,0.46-2.51,1-4c0.17-0.49,0.3-0.82,0.4-0.99
				C107.92,50.3,108.04,50.19,108.17,50.16z M109.28,45.18c0.32-0.07,0.52,0.09,0.6,0.47c0.07,0.34-0.01,0.76-0.24,1.24
				c-0.22,0.46-0.47,0.72-0.75,0.78c-0.14,0.03-0.26-0.01-0.37-0.1c-0.11-0.09-0.18-0.21-0.21-0.37c-0.08-0.39,0.02-0.85,0.31-1.37
				C108.84,45.44,109.06,45.23,109.28,45.18z"/>
			<path class="st9" d="M112.08,48.78c-0.3,0.92-0.54,1.94-0.72,3.05c-0.27,1.58-0.33,2.73-0.18,3.45c0.04,0.21,0.11,0.35,0.21,0.44
				c0.1,0.09,0.22,0.12,0.37,0.09c0.36-0.07,0.71-0.55,1.06-1.42c0.23-0.54,0.41-1.08,0.57-1.6c0.08-0.3,0.2-0.46,0.36-0.5
				c0.09-0.02,0.18,0,0.26,0.06c0.07,0.06,0.12,0.13,0.13,0.2c0.06,0.3-0.15,1.05-0.63,2.24c-0.57,1.43-1.2,2.22-1.89,2.36
				c-0.37,0.08-0.71-0.05-1.03-0.39c-0.2-0.21-0.35-0.55-0.44-1c-0.2-0.99-0.19-2.2,0.04-3.63c0.06-0.35,0.23-1.21,0.52-2.58
				c-0.18,0.1-0.32,0.16-0.42,0.18c-0.15,0.03-0.29,0.02-0.42-0.04c-0.18-0.08-0.29-0.21-0.33-0.38c-0.04-0.21,0.03-0.39,0.21-0.56
				c0.05-0.04,0.3-0.15,0.76-0.32c0.17-0.07,0.4-0.2,0.71-0.39c0.14-0.57,0.41-1.35,0.79-2.36c0.21-0.56,0.37-0.92,0.46-1.09
				c0.13-0.24,0.26-0.37,0.39-0.4c0.09-0.02,0.2,0.02,0.31,0.11c0.11,0.09,0.17,0.19,0.2,0.29c0.04,0.21-0.07,0.68-0.34,1.39
				c-0.18,0.46-0.31,0.84-0.39,1.12c0.75-0.41,1.29-0.65,1.63-0.72c0.39-0.08,0.63,0.07,0.71,0.44c0.04,0.19,0,0.34-0.12,0.46
				c-0.06,0.06-0.24,0.14-0.53,0.24c-0.12,0.02-0.63,0.28-1.53,0.8C112.56,48.49,112.32,48.63,112.08,48.78z"/>
			<path class="st9" d="M118.3,52.18c-0.46,0.99-0.84,1.74-1.13,2.23c-0.58,0.97-1.13,1.51-1.63,1.62
				c-0.24,0.05-0.46-0.01-0.64-0.19c-0.14-0.14-0.24-0.33-0.29-0.58c-0.18-0.89,0.04-2.16,0.65-3.81c0.63-1.69,1.15-2.57,1.56-2.65
				c0.12-0.02,0.23,0.01,0.34,0.11c0.1,0.07,0.16,0.17,0.18,0.3c0.04,0.18,0.03,0.35-0.03,0.5c-0.05,0.15-0.23,0.5-0.52,1.05
				c-0.31,0.57-0.58,1.17-0.81,1.81c-0.26,0.72-0.36,1.23-0.3,1.52c0.04,0.17,0.13,0.24,0.27,0.21c0.29-0.06,0.73-0.62,1.34-1.67
				c0.38-0.67,0.67-1.22,0.87-1.67c0.04-0.09,0.21-0.54,0.51-1.32c0.28-0.7,0.45-1.11,0.52-1.25c0.16-0.33,0.33-0.52,0.51-0.55
				c0.11-0.02,0.23,0.01,0.35,0.11c0.11,0.09,0.18,0.2,0.2,0.34c0.05,0.24-0.01,0.67-0.18,1.28c-0.21,0.75-0.39,1.45-0.56,2.1
				c-0.26,1.01-0.44,1.9-0.54,2.68c0.4-0.4,0.74-0.86,1.03-1.38c0.49-0.87,0.78-1.5,0.84-1.89c0.07-0.36,0.17-0.55,0.32-0.58
				c0.2-0.04,0.32,0.05,0.37,0.28c0.09,0.44-0.1,1.15-0.57,2.14c-0.56,1.19-1.34,2.27-2.32,3.22c-0.26,1.78-0.55,3.27-0.87,4.47
				c-0.59,2.22-1.42,3.43-2.49,3.65c-0.44,0.09-0.83-0.03-1.17-0.36c-0.27-0.25-0.45-0.6-0.54-1.06c-0.26-1.28,0.25-2.75,1.55-4.41
				c0.38-0.49,0.96-1.12,1.74-1.89c0.32-0.31,0.56-0.56,0.74-0.76c0.05-0.4,0.15-0.94,0.28-1.62
				C118.06,53.42,118.19,52.76,118.3,52.18z M117.31,57.42c-0.67,0.6-1.32,1.39-1.95,2.37c-0.63,1.01-0.87,1.88-0.72,2.61
				c0.03,0.16,0.1,0.28,0.2,0.37c0.14,0.13,0.29,0.17,0.46,0.14c0.54-0.11,1-0.88,1.39-2.3c0.06-0.24,0.21-1,0.45-2.31
				C117.2,58.03,117.25,57.74,117.31,57.42z"/>
		</g>
	</g>
	<g>
		<text transform="matrix(1 0 0 1 86.7584 114.4592)" class="st10 st11 st12">Est.</text>
		<text transform="matrix(1 0 0 1 85.4484 121.4792)" class="st10 st11 st12">2021</text>
	</g>
</g>
</svg>
