<?xml version="1.0" encoding="utf-8"?>
<!-- Generator: Adobe Illustrator 25.1.0, SVG Export Plug-In . SVG Version: 6.00 Build 0)  -->
<svg version="1.1" id="Layer_1" xmlns="http://www.w3.org/2000/svg" xmlns:xlink="http://www.w3.org/1999/xlink" x="0px" y="0px"
	 viewBox="0 0 252 252" style="enable-background:new 0 0 252 252;" xml:space="preserve">
<style type="text/css">
	.st0{fill:none;stroke:#FFF3DE;stroke-width:2;stroke-linecap:round;stroke-miterlimit:10;}
	.st1{fill:#DF7934;stroke:#414042;stroke-miterlimit:10;}
	.st2{fill:#414042;stroke:#414042;stroke-width:3;stroke-miterlimit:10;}
	.st3{fill:#6D6E71;stroke:#6D6E71;stroke-miterlimit:10;}
	.st4{fill:#DF7934;stroke:#58595B;stroke-miterlimit:10;}
	.st5{fill:#E3713C;stroke:#58595B;stroke-miterlimit:10;}
	.st6{fill:#58595B;stroke:#58595B;stroke-miterlimit:10;}
	.st7{fill:#FFF3DE;}
	.st8{fill:#FFF6D7;}
</style>
<g>
	<g>
		<line class="st0" x1="125.52" y1="22.41" x2="125.52" y2="229.4"/>
		<line class="st0" x1="115.6" y1="38.28" x2="119.9" y2="78.62"/>
		<line class="st0" x1="102.04" y1="27.7" x2="112.62" y2="69.69"/>
		<line class="st0" x1="94.77" y1="41.59" x2="105.35" y2="69.36"/>
		<line class="st0" x1="81.54" y1="33.32" x2="98.07" y2="69.36"/>
		<line class="st0" x1="78.9" y1="49.19" x2="89.48" y2="67.38"/>
		<line class="st0" x1="71.29" y1="49.86" x2="78.9" y2="65.4"/>
		<line class="st0" x1="135.6" y1="37.79" x2="131.3" y2="78.13"/>
		<line class="st0" x1="149.16" y1="27.21" x2="138.58" y2="69.2"/>
		<line class="st0" x1="156.43" y1="41.09" x2="145.85" y2="68.87"/>
		<line class="st0" x1="169.66" y1="32.83" x2="153.13" y2="68.87"/>
		<line class="st0" x1="172.3" y1="48.7" x2="161.72" y2="66.88"/>
		<line class="st0" x1="179.91" y1="49.36" x2="172.3" y2="64.9"/>
		<line class="st0" x1="62.69" y1="188.73" x2="104.69" y2="155"/>
		<line class="st0" x1="62.69" y1="206.58" x2="107.33" y2="158.97"/>
		<line class="st0" x1="78.23" y1="201.95" x2="108.98" y2="163.6"/>
		<line class="st0" x1="82.86" y1="215.18" x2="111.63" y2="164.92"/>
		<line class="st0" x1="93.44" y1="217.82" x2="113.94" y2="167.57"/>
		<line class="st0" x1="102.7" y1="224.77" x2="117.58" y2="169.88"/>
		<line class="st0" x1="115.6" y1="218.49" x2="120.23" y2="182.45"/>
		<line class="st0" x1="24.34" y1="102.76" x2="32.27" y2="105.4"/>
		<line class="st0" x1="31.94" y1="80.61" x2="43.85" y2="86.56"/>
		<line class="st0" x1="189.5" y1="189.55" x2="147.51" y2="155.83"/>
		<line class="st0" x1="189.5" y1="207.41" x2="144.86" y2="159.8"/>
		<line class="st0" x1="173.96" y1="202.78" x2="143.21" y2="164.42"/>
		<line class="st0" x1="169.33" y1="216.01" x2="140.56" y2="165.75"/>
		<line class="st0" x1="158.75" y1="218.65" x2="138.25" y2="168.39"/>
		<line class="st0" x1="149.49" y1="225.59" x2="134.61" y2="170.71"/>
		<line class="st0" x1="136.59" y1="219.31" x2="131.96" y2="183.27"/>
		<line class="st0" x1="226.86" y1="149.22" x2="218.59" y2="147.23"/>
		<line class="st0" x1="227.85" y1="103.59" x2="219.92" y2="106.23"/>
		<line class="st0" x1="220.25" y1="81.43" x2="208.34" y2="87.38"/>
		<line class="st0" x1="203.88" y1="163.6" x2="219.42" y2="170.87"/>
		<line class="st0" x1="193.3" y1="168.23" x2="203.55" y2="174.51"/>
		<line class="st0" x1="188.34" y1="176.16" x2="199.25" y2="185.42"/>
		<line class="st0" x1="25.08" y1="148.97" x2="33.35" y2="146.98"/>
		<line class="st0" x1="48.06" y1="163.35" x2="32.52" y2="170.62"/>
		<line class="st0" x1="58.64" y1="167.98" x2="48.39" y2="174.26"/>
		<line class="st0" x1="63.6" y1="175.91" x2="52.69" y2="185.17"/>
	</g>
	<polygon class="st1" points="29.44,55.19 222.54,55.19 125.42,220.52 	"/>
	<polygon class="st1" points="43.38,62.2 211.01,62.2 126.7,207.68 	"/>
	<path class="st2" d="M217.85,119.91h-2.51c-0.6-10.18-2.55-17.76-4.86-17.76h-6.53c-1.14-7.42-2.78-12.11-4.6-12.11h-8.94
		c-1.64-7.59-3.8-12.25-6.17-12.25h-15.21c-4.63,0-8.47,17.4-9.15,40.12H91c-0.68-22.72-4.52-40.12-9.15-40.12H66.64
		c-2.37,0-4.53,4.65-6.17,12.25h-8.94c-1.82,0-3.46,4.69-4.6,12.11H40.4c-2.31,0-4.26,7.58-4.86,17.76h-2.51
		c-1.77,0-3.21,3.18-3.21,7.02s1.44,6.95,3.21,6.95h2.55c0.65,9.76,2.56,16.83,4.82,16.83h6.44c1.14,7.68,2.82,12.54,4.69,12.54
		h9.48c1.56,6.12,3.51,9.76,5.63,9.76h13.94c0.18,0.05,0.35,0.08,0.53,0.08s0.35-0.03,0.53-0.08h0.21c4.37,0,8.04-15.85,9-36.81
		h69.17c0.97,20.96,4.63,36.81,9,36.81h0.21c0.18,0.05,0.35,0.08,0.53,0.08s0.35-0.03,0.53-0.08h13.94c2.12,0,4.07-3.64,5.63-9.76
		h9.48c1.87,0,3.55-4.86,4.69-12.54h6.44c2.26,0,4.17-7.07,4.82-16.83h2.55c1.77,0,3.21-3.11,3.21-6.95S219.62,119.91,217.85,119.91
		z"/>
	<g>
		<g>
			<g>
				<g>
					<path class="st3" d="M38.3,133.87c1.77,0,3.21-3.18,3.21-7.02c0-3.84-1.44-6.95-3.21-6.95h-5.27c-1.77,0-3.21,3.18-3.21,7.02
						c0,3.84,1.44,6.95,3.21,6.95H38.3z"/>
				</g>
				<g>
					<path class="st4" d="M48.71,150.71c2.79,0,5.06-11.05,5.06-24.39c0-13.35-2.26-24.17-5.06-24.17H40.4
						c-2.79,0-5.06,11.05-5.06,24.39c0,13.35,2.26,24.17,5.06,24.17H48.71z"/>
				</g>
				<g>
					<path class="st4" d="M61.74,163.25c3.43,0,6.22-16.65,6.22-36.78c0-20.12-2.78-36.44-6.22-36.44H51.53
						c-3.43,0-6.22,16.65-6.22,36.78c0,20.12,2.78,36.44,6.22,36.44H61.74z"/>
				</g>
				<g>
					<path class="st4" d="M81.85,173.01c5.11,0,9.26-21.66,9.26-47.83c0-26.17-4.15-47.39-9.26-47.39H66.64
						c-5.11,0-9.26,21.66-9.26,47.83c0,26.17,4.15,47.39,9.26,47.39H81.85z"/>
					<ellipse class="st5" cx="81.1" cy="125.7" rx="9.26" ry="47.39"/>
					<ellipse class="st6" cx="81.74" cy="125.45" rx="3.25" ry="20.33"/>
				</g>
			</g>
			<line class="st4" x1="74.9" y1="158.35" x2="60.03" y2="158.35"/>
			<line class="st4" x1="58.7" y1="152.71" x2="47.46" y2="152.71"/>
			<line class="st4" x1="46.14" y1="144.47" x2="37.54" y2="144.47"/>
		</g>
		<g>
			<g>
				<g>
					<path class="st3" d="M212.57,133.87c-1.77,0-3.21-3.18-3.21-7.02c0-3.84,1.44-6.95,3.21-6.95h5.27c1.77,0,3.21,3.18,3.21,7.02
						c0,3.84-1.44,6.95-3.21,6.95H212.57z"/>
				</g>
				<g>
					<path class="st4" d="M202.17,150.71c-2.79,0-5.06-11.05-5.06-24.39c0-13.35,2.26-24.17,5.06-24.17h8.31
						c2.79,0,5.06,11.05,5.06,24.39c0,13.35-2.26,24.17-5.06,24.17H202.17z"/>
				</g>
				<g>
					<path class="st4" d="M189.13,163.25c-3.43,0-6.22-16.65-6.22-36.78c0-20.12,2.78-36.44,6.22-36.44h10.21
						c3.43,0,6.22,16.65,6.22,36.78c0,20.12-2.78,36.44-6.22,36.44H189.13z"/>
				</g>
				<g>
					<path class="st4" d="M169.02,173.01c-5.11,0-9.26-21.66-9.26-47.83c0-26.17,4.15-47.39,9.26-47.39h15.21
						c5.11,0,9.26,21.66,9.26,47.83c0,26.17-4.15,47.39-9.26,47.39H169.02z"/>
					<ellipse class="st5" cx="169.77" cy="125.7" rx="9.26" ry="47.39"/>
					<ellipse class="st6" cx="169.13" cy="125.45" rx="3.25" ry="20.33"/>
				</g>
			</g>
			<line class="st4" x1="175.97" y1="158.35" x2="190.85" y2="158.35"/>
			<line class="st4" x1="192.17" y1="152.71" x2="203.41" y2="152.71"/>
			<line class="st4" x1="204.73" y1="144.47" x2="213.33" y2="144.47"/>
		</g>
		<path class="st4" d="M83.08,136.2h84.39c1.41,0,2.55-1.14,2.55-2.55v-13.19c0-1.41-1.14-2.55-2.55-2.55H83.08
			c-1.41,0-2.55,1.14-2.55,2.55v13.19C80.53,135.06,81.67,136.2,83.08,136.2z"/>
	</g>
</g>
<g>
	<g>
		<path class="st7" d="M99.46,74.05c0.62-0.13,1.15,0.03,1.59,0.47c0.35,0.35,0.59,0.81,0.7,1.38c0.21,1.03,0.15,2.27-0.18,3.71
			c-0.3,1.25-0.75,2.4-1.35,3.46c-0.4,0.69-0.75,1.07-1.05,1.13c-0.2,0.04-0.4-0.03-0.61-0.22c-0.15-0.13-0.25-0.3-0.29-0.5
			c-0.08-0.37,0.12-0.85,0.59-1.45c0.66-0.84,1.14-1.72,1.45-2.62c0.46-1.31,0.6-2.37,0.44-3.18c-0.07-0.33-0.18-0.56-0.34-0.69
			c-0.16-0.13-0.36-0.18-0.61-0.12c-0.51,0.1-1.15,0.68-1.91,1.72c-0.87,1.18-1.73,2.71-2.58,4.6c-1.08,2.4-1.81,4.7-2.19,6.89
			c-0.39,2.27-0.43,4.15-0.12,5.64c0.15,0.71,0.45,1.28,0.92,1.71c0.51,0.48,1.06,0.66,1.64,0.54c1-0.21,2.08-1.36,3.24-3.45
			c0.34-0.64,0.73-1.53,1.17-2.7c0.29-0.75,0.47-1.27,0.53-1.57c0.08-0.34,0.21-0.52,0.39-0.56c0.2-0.04,0.33,0.05,0.38,0.27
			c0.1,0.48-0.2,1.66-0.9,3.54c-0.58,1.57-1.3,2.9-2.16,4c-0.97,1.23-1.97,1.95-3.01,2.16c-1.09,0.22-2.04-0.16-2.86-1.16
			c-0.53-0.63-0.88-1.41-1.07-2.32c-0.47-2.29-0.12-5.38,1.06-9.27c1.01-3.31,2.22-6.05,3.64-8.24
			C97.18,75.33,98.35,74.28,99.46,74.05z"/>
		<path class="st7" d="M106.3,83.29c0.76-0.16,1.25,0.3,1.47,1.36c0.29,1.41,0.08,3.32-0.61,5.72c-0.76,2.6-1.73,4.02-2.89,4.26
			c-0.54,0.11-0.99-0.1-1.36-0.62c-0.19-0.26-0.32-0.59-0.41-1c-0.28-1.36-0.17-2.92,0.32-4.68c0.46-1.63,1.12-2.96,1.98-3.99
			C105.31,83.74,105.81,83.39,106.3,83.29z M106.09,89.61c-0.28-0.17-0.43-0.31-0.45-0.42c-0.02-0.08,0.08-0.35,0.3-0.79
			c0.62-1.24,0.86-2.2,0.72-2.85c-0.02-0.08-0.06-0.16-0.12-0.24c-0.11-0.14-0.24-0.2-0.4-0.17c-0.3,0.06-0.67,0.48-1.11,1.26
			c-0.57,1-0.96,1.99-1.16,2.98c-0.24,1.12-0.3,2.03-0.16,2.71c0.04,0.18,0.11,0.33,0.22,0.45c0.16,0.17,0.33,0.23,0.52,0.19
			c0.45-0.09,0.85-0.57,1.2-1.44c0.16-0.36,0.27-0.73,0.34-1.1S106.1,89.62,106.09,89.61z"/>
		<path class="st7" d="M110.95,87.52c0.59-1.09,1.13-1.97,1.61-2.62c0.74-0.98,1.26-1.5,1.57-1.57c0.15-0.03,0.29,0.01,0.43,0.11
			c0.13,0.1,0.2,0.21,0.23,0.35c0.04,0.2-0.05,0.56-0.29,1.09c-0.35,0.83-0.58,1.51-0.67,2.06c1.66-2.94,2.89-4.5,3.69-4.66
			c0.17-0.03,0.32-0.01,0.47,0.09c0.16,0.1,0.25,0.25,0.29,0.44c0.06,0.3-0.06,0.72-0.36,1.27c-1.33,2.43-1.86,4.31-1.59,5.64
			c0.11,0.54,0.27,0.91,0.49,1.11l0.47,0.45c0.09,0.08,0.16,0.19,0.19,0.34c0.04,0.17,0.01,0.34-0.08,0.52
			c-0.1,0.2-0.24,0.32-0.42,0.35c-0.31,0.06-0.64-0.1-0.99-0.5c-0.42-0.47-0.71-1.06-0.86-1.78c-0.2-0.97-0.16-1.99,0.12-3.08
			c0.1-0.38,0.28-0.91,0.55-1.57c-0.65,0.84-1.26,1.94-1.83,3.3c-0.39,0.92-0.71,1.93-0.95,3.02c-0.12,0.52-0.32,0.81-0.6,0.87
			c-0.32,0.06-0.51-0.1-0.6-0.51c-0.09-0.44-0.01-1.39,0.23-2.85c0.14-0.84,0.34-1.73,0.6-2.68c-1.3,1.73-2.1,3.87-2.41,6.44
			c-0.09,0.57-0.29,0.89-0.62,0.96c-0.15,0.03-0.28-0.01-0.4-0.12c-0.13-0.11-0.21-0.25-0.25-0.43c-0.13-0.63-0.05-1.82,0.22-3.58
			c0.29-1.86,0.69-3.57,1.22-5.11c0.36-1.08,0.69-1.65,1-1.72c0.28-0.06,0.45,0.08,0.52,0.43c0.03,0.15-0.07,0.56-0.29,1.22
			C111.27,86.03,111.04,86.94,110.95,87.52z"/>
		<path class="st7" d="M121.08,85.44c0.59-1.09,1.13-1.97,1.61-2.62c0.74-0.98,1.26-1.5,1.57-1.57c0.15-0.03,0.29,0.01,0.43,0.11
			c0.13,0.1,0.2,0.21,0.23,0.35c0.04,0.2-0.05,0.56-0.29,1.09c-0.35,0.83-0.58,1.51-0.67,2.06c1.66-2.94,2.89-4.5,3.69-4.66
			c0.17-0.03,0.32,0,0.47,0.09c0.16,0.1,0.25,0.25,0.29,0.44c0.06,0.3-0.06,0.72-0.36,1.27c-1.33,2.43-1.86,4.31-1.59,5.64
			c0.11,0.54,0.27,0.91,0.49,1.11l0.47,0.45c0.09,0.08,0.16,0.2,0.19,0.34c0.04,0.17,0.01,0.34-0.08,0.52
			c-0.1,0.2-0.25,0.32-0.42,0.35c-0.31,0.06-0.64-0.1-0.99-0.5c-0.42-0.47-0.71-1.06-0.86-1.78c-0.2-0.97-0.16-1.99,0.12-3.08
			c0.1-0.38,0.28-0.91,0.55-1.57c-0.65,0.84-1.26,1.94-1.84,3.3c-0.39,0.92-0.71,1.93-0.95,3.02c-0.11,0.52-0.32,0.81-0.6,0.87
			c-0.32,0.06-0.51-0.11-0.6-0.51c-0.09-0.44-0.01-1.39,0.23-2.85c0.14-0.84,0.34-1.73,0.6-2.68c-1.3,1.73-2.1,3.88-2.41,6.44
			c-0.09,0.57-0.29,0.89-0.62,0.96c-0.15,0.03-0.28-0.01-0.4-0.12c-0.13-0.11-0.21-0.25-0.25-0.43c-0.13-0.63-0.05-1.82,0.22-3.58
			c0.29-1.86,0.69-3.57,1.22-5.11c0.36-1.08,0.69-1.65,1-1.72c0.28-0.06,0.45,0.08,0.52,0.42c0.03,0.15-0.07,0.56-0.29,1.22
			C121.39,83.95,121.16,84.86,121.08,85.44z"/>
		<path class="st7" d="M133.29,85.93c-0.27,0.72-0.52,1.3-0.75,1.75c-0.4,0.79-0.86,1.24-1.39,1.35c-0.46,0.09-0.86-0.07-1.2-0.48
			c-0.24-0.29-0.41-0.67-0.51-1.12c-0.28-1.37-0.09-3.05,0.56-5.03c0.3-0.93,0.64-1.65,1.02-2.19c0.29-0.42,0.55-0.66,0.78-0.71
			c0.13-0.03,0.26,0.01,0.4,0.12c0.12,0.1,0.19,0.21,0.21,0.32c0.04,0.2-0.06,0.57-0.31,1.09c-0.56,1.21-0.94,2.3-1.16,3.26
			c-0.25,1.13-0.32,1.98-0.2,2.57c0.03,0.15,0.08,0.26,0.16,0.32c0.08,0.07,0.17,0.09,0.28,0.07c0.47-0.1,0.97-1.01,1.5-2.73
			c0.27-0.9,0.46-1.87,0.58-2.91c0.06-0.56,0.18-1.08,0.36-1.55c0.18-0.42,0.4-0.66,0.65-0.71c0.14-0.03,0.28,0.02,0.42,0.13
			c0.15,0.12,0.25,0.28,0.28,0.46c0.08,0.38-0.07,1.31-0.43,2.78c-0.25,1.01-0.31,1.83-0.18,2.44c0.13,0.66,0.4,1.19,0.81,1.6
			c0.11,0.11,0.41,0.26,0.89,0.45c0.23,0.1,0.38,0.3,0.44,0.61c0.04,0.19,0,0.37-0.12,0.54c-0.12,0.17-0.28,0.27-0.48,0.31
			c-0.46,0.1-0.93-0.03-1.4-0.38c-0.42-0.31-0.75-0.82-0.99-1.52C133.49,86.65,133.41,86.38,133.29,85.93z"/>
		<path class="st7" d="M138.77,81.65c0.09-0.15,0.18-0.3,0.27-0.45c1.5-2.57,2.58-3.92,3.23-4.05c0.36-0.07,0.59,0.12,0.68,0.57
			c0.07,0.32-0.02,0.73-0.26,1.23c-1.29,2.73-1.75,5-1.38,6.81c0.12,0.58,0.37,1.11,0.76,1.59c0.18,0.22,0.28,0.4,0.31,0.53
			c0.03,0.13,0,0.26-0.09,0.4c-0.09,0.17-0.22,0.28-0.39,0.31c-0.38,0.08-0.76-0.13-1.13-0.63c-0.36-0.47-0.61-1.07-0.76-1.82
			c-0.29-1.43-0.15-3.12,0.44-5.06c-1.07,1.18-1.91,3.06-2.52,5.63c-0.16,0.62-0.4,0.96-0.72,1.03c-0.16,0.03-0.3,0-0.43-0.11
			c-0.16-0.12-0.27-0.3-0.31-0.53c-0.12-0.57,0.15-2.19,0.79-4.86c0.34-1.44,0.63-2.5,0.86-3.17c0.23-0.66,0.48-1.01,0.73-1.06
			c0.12-0.02,0.25,0.02,0.39,0.12c0.16,0.12,0.26,0.28,0.3,0.47c0.05,0.23-0.02,0.6-0.2,1.09C139.09,80.42,138.9,81.07,138.77,81.65
			z"/>
		<path class="st7" d="M146.34,75.85c0.16-0.03,0.3,0.01,0.43,0.13c0.1,0.1,0.16,0.21,0.18,0.33c0.04,0.19-0.03,0.54-0.21,1.04
			c-0.62,1.91-1.01,3.46-1.2,4.65c-0.2,1.23-0.35,2.47-0.44,3.74c-0.04,0.56-0.22,0.88-0.53,0.94c-0.19,0.04-0.35-0.02-0.5-0.16
			c-0.13-0.12-0.21-0.26-0.25-0.42c-0.07-0.32,0.01-1.44,0.24-3.37c0.17-1.52,0.6-3.24,1.29-5.18c0.22-0.63,0.39-1.06,0.52-1.29
			C146.02,76.02,146.17,75.88,146.34,75.85z M147.78,69.39c0.42-0.09,0.68,0.12,0.78,0.6c0.09,0.45-0.01,0.98-0.31,1.61
			c-0.28,0.6-0.61,0.94-0.97,1.01c-0.18,0.04-0.33-0.01-0.48-0.13c-0.14-0.12-0.23-0.27-0.27-0.48c-0.1-0.51,0.03-1.1,0.41-1.78
			C147.21,69.73,147.49,69.45,147.78,69.39z"/>
		<path class="st7" d="M151.41,74.06c-0.38,1.2-0.7,2.51-0.93,3.94c-0.35,2.04-0.42,3.53-0.23,4.47c0.05,0.26,0.14,0.46,0.27,0.58
			c0.13,0.12,0.29,0.16,0.48,0.12c0.46-0.1,0.92-0.71,1.38-1.84c0.29-0.7,0.54-1.39,0.74-2.08c0.1-0.39,0.26-0.6,0.46-0.64
			c0.12-0.02,0.23,0,0.34,0.08c0.09,0.08,0.15,0.17,0.17,0.26c0.08,0.39-0.19,1.36-0.81,2.91c-0.74,1.86-1.56,2.88-2.45,3.06
			c-0.47,0.1-0.92-0.07-1.34-0.51c-0.26-0.28-0.45-0.71-0.57-1.29c-0.26-1.29-0.25-2.85,0.05-4.69c0.07-0.46,0.3-1.57,0.68-3.34
			c-0.24,0.13-0.42,0.2-0.55,0.23c-0.19,0.04-0.38,0.02-0.55-0.05c-0.23-0.11-0.38-0.27-0.42-0.49c-0.05-0.26,0.04-0.51,0.27-0.72
			c0.07-0.06,0.39-0.2,0.99-0.42c0.21-0.09,0.52-0.26,0.91-0.5c0.19-0.74,0.53-1.75,1.03-3.05c0.28-0.72,0.48-1.19,0.6-1.42
			c0.17-0.31,0.33-0.48,0.5-0.52c0.12-0.02,0.26,0.02,0.41,0.15c0.14,0.11,0.22,0.24,0.25,0.38c0.06,0.28-0.09,0.88-0.44,1.8
			c-0.23,0.6-0.4,1.08-0.5,1.45c0.97-0.53,1.67-0.84,2.12-0.93c0.51-0.1,0.82,0.09,0.92,0.58c0.05,0.25,0,0.44-0.15,0.6
			c-0.08,0.08-0.31,0.18-0.69,0.31c-0.16,0.02-0.82,0.37-1.98,1.04C152.03,73.68,151.71,73.87,151.41,74.06z"/>
		<path class="st7" d="M159.46,78.46c-0.6,1.28-1.09,2.25-1.47,2.89c-0.76,1.26-1.46,1.96-2.11,2.09c-0.32,0.06-0.59-0.02-0.83-0.24
			c-0.18-0.18-0.31-0.43-0.37-0.75c-0.24-1.15,0.05-2.79,0.84-4.94c0.81-2.18,1.49-3.33,2.03-3.44c0.15-0.03,0.29,0.02,0.44,0.14
			c0.13,0.1,0.21,0.22,0.24,0.38c0.05,0.23,0.04,0.45-0.04,0.65c-0.07,0.2-0.29,0.65-0.67,1.36c-0.4,0.74-0.75,1.52-1.04,2.34
			c-0.34,0.93-0.47,1.59-0.39,1.97c0.05,0.22,0.16,0.32,0.35,0.28c0.37-0.08,0.95-0.8,1.73-2.17c0.49-0.86,0.87-1.58,1.13-2.16
			c0.05-0.12,0.27-0.69,0.67-1.71c0.36-0.9,0.58-1.44,0.67-1.61c0.2-0.43,0.42-0.67,0.67-0.72c0.15-0.03,0.3,0.02,0.45,0.14
			c0.14,0.11,0.23,0.26,0.27,0.44c0.06,0.31-0.02,0.86-0.24,1.66c-0.26,0.97-0.5,1.88-0.72,2.72c-0.34,1.31-0.57,2.47-0.7,3.46
			c0.51-0.51,0.96-1.11,1.33-1.78c0.64-1.13,1-1.94,1.09-2.45c0.09-0.46,0.23-0.71,0.41-0.75c0.26-0.05,0.42,0.07,0.48,0.37
			c0.12,0.56-0.13,1.49-0.74,2.77c-0.73,1.54-1.73,2.93-3.01,4.17c-0.34,2.31-0.71,4.24-1.12,5.79c-0.77,2.87-1.84,4.45-3.23,4.73
			c-0.57,0.12-1.07-0.04-1.52-0.47c-0.35-0.33-0.58-0.78-0.7-1.37c-0.34-1.66,0.33-3.56,2.01-5.71c0.49-0.63,1.24-1.45,2.25-2.46
			c0.41-0.4,0.73-0.73,0.96-0.98c0.07-0.52,0.19-1.22,0.37-2.1C159.14,80.07,159.32,79.22,159.46,78.46z M158.18,85.25
			c-0.87,0.77-1.71,1.8-2.52,3.07c-0.82,1.31-1.13,2.43-0.93,3.38c0.04,0.2,0.13,0.36,0.26,0.48c0.18,0.16,0.38,0.22,0.6,0.17
			c0.7-0.14,1.3-1.13,1.8-2.98c0.08-0.3,0.28-1.3,0.58-2.99C158.03,86.04,158.1,85.66,158.18,85.25z"/>
	</g>
</g>
<g>
	<g>
		<path class="st8" d="M119.24,152.48h5.2l0.12,2.21h-0.3c-0.12-0.7-0.3-1.19-0.56-1.46c-0.26-0.28-0.59-0.42-1-0.42h-1.29
			c-0.1,0-0.18,0.03-0.23,0.08c-0.05,0.06-0.08,0.14-0.08,0.26v2.34h0.56c0.3,0,0.54-0.11,0.73-0.32c0.19-0.22,0.29-0.55,0.3-0.99
			h0.31v3.04h-0.31c-0.01-0.5-0.12-0.86-0.31-1.08c-0.19-0.22-0.45-0.33-0.78-0.33h-0.51v2.61c0,0.09,0.03,0.17,0.1,0.22
			c0.06,0.05,0.17,0.08,0.32,0.08h1.02c1.1,0,1.74-0.7,1.91-2.11h0.32l-0.11,2.45h-5.41v-0.33h0.45c0.17,0,0.3-0.03,0.37-0.09
			c0.07-0.06,0.11-0.15,0.11-0.26v-5.2c0-0.12-0.03-0.2-0.09-0.26c-0.06-0.06-0.16-0.08-0.29-0.08h-0.54V152.48z"/>
		<path class="st8" d="M126.01,157.48c0.18,0.51,0.39,0.87,0.63,1.06c0.24,0.2,0.53,0.29,0.88,0.29c0.32,0,0.57-0.07,0.74-0.21
			c0.17-0.14,0.26-0.32,0.26-0.54c0-0.12-0.03-0.23-0.1-0.33c-0.06-0.09-0.15-0.16-0.26-0.21c-0.11-0.05-0.4-0.11-0.88-0.2
			c-0.45-0.09-0.76-0.18-0.94-0.28s-0.32-0.23-0.42-0.4c-0.1-0.17-0.15-0.36-0.15-0.56c0-0.3,0.1-0.58,0.31-0.83
			c0.26-0.32,0.63-0.47,1.11-0.47c0.36,0,0.7,0.11,1,0.34l0.29-0.31h0.18l0.12,1.48h-0.3c-0.13-0.42-0.31-0.72-0.53-0.91
			c-0.22-0.18-0.5-0.28-0.82-0.28c-0.28,0-0.5,0.07-0.66,0.21c-0.16,0.14-0.24,0.31-0.24,0.5c0,0.17,0.07,0.32,0.22,0.44
			c0.15,0.12,0.43,0.21,0.85,0.28c0.49,0.08,0.81,0.15,0.96,0.21c0.24,0.09,0.43,0.23,0.56,0.41c0.13,0.18,0.2,0.41,0.2,0.68
			c0,0.37-0.14,0.68-0.43,0.93c-0.29,0.25-0.66,0.38-1.1,0.38c-0.41,0-0.79-0.14-1.15-0.41l-0.32,0.37h-0.24l-0.09-1.66H126.01z"/>
		<path class="st8" d="M130.81,153.19h0.3v1.7h1.34v0.41h-1.34v2.67c0,0.23,0.05,0.41,0.16,0.53s0.25,0.18,0.42,0.18
			c0.2,0,0.37-0.09,0.51-0.28c0.14-0.19,0.22-0.49,0.25-0.92h0.3c-0.02,0.55-0.14,0.96-0.38,1.23c-0.23,0.27-0.54,0.4-0.91,0.4
			c-0.34,0-0.61-0.09-0.81-0.28c-0.19-0.19-0.29-0.43-0.29-0.74v-2.79h-0.72v-0.31c0.33-0.06,0.58-0.19,0.75-0.41
			C130.65,154.24,130.79,153.78,130.81,153.19z"/>
		<path class="st8" d="M134.22,158.07c0.15,0,0.27,0.05,0.38,0.16c0.1,0.11,0.16,0.23,0.16,0.38c0,0.15-0.05,0.28-0.16,0.39
			c-0.1,0.11-0.23,0.16-0.38,0.16c-0.15,0-0.27-0.05-0.38-0.16c-0.1-0.11-0.16-0.24-0.16-0.39c0-0.15,0.05-0.28,0.16-0.39
			C133.94,158.13,134.07,158.07,134.22,158.07z"/>
		<path class="st8" d="M118.39,167.16c-0.14,0.17,0.53,0.26,2.01,0.26c0.22,0,0.38-0.06,0.47-0.17c0.09-0.12,0.2-0.44,0.32-0.96
			h0.31l-0.14,1.84h-3.97v-0.24l1.29-1.47c0.72-0.78,1.15-1.27,1.3-1.47c0.21-0.29,0.36-0.56,0.45-0.83
			c0.09-0.27,0.14-0.51,0.14-0.73c0-0.36-0.1-0.65-0.3-0.86c-0.2-0.21-0.48-0.31-0.84-0.31c-0.4,0-0.73,0.1-0.99,0.29
			s-0.38,0.4-0.38,0.61c0,0.07,0.02,0.13,0.06,0.17c0.04,0.04,0.11,0.07,0.23,0.1c0.3,0.07,0.45,0.25,0.45,0.52
			c0,0.15-0.05,0.28-0.15,0.38c-0.1,0.1-0.23,0.15-0.39,0.15c-0.18,0-0.34-0.08-0.47-0.25c-0.14-0.17-0.2-0.38-0.2-0.65
			c0-0.3,0.08-0.58,0.23-0.82s0.39-0.45,0.7-0.61c0.31-0.16,0.65-0.24,1.01-0.24c0.36,0,0.69,0.08,1,0.23
			c0.31,0.15,0.54,0.36,0.69,0.61s0.23,0.52,0.23,0.82c0,0.2-0.04,0.41-0.12,0.62c-0.08,0.21-0.19,0.41-0.34,0.59
			c-0.25,0.32-0.52,0.59-0.78,0.81l-1.17,0.99C118.74,166.77,118.52,166.99,118.39,167.16z"/>
		<path class="st8" d="M124.55,161.86c0.58,0,1.06,0.23,1.44,0.67c0.48,0.55,0.71,1.39,0.71,2.52c0,1.04-0.21,1.84-0.62,2.39
			s-0.91,0.82-1.5,0.82c-0.57,0-1.04-0.23-1.42-0.69c-0.47-0.58-0.71-1.41-0.71-2.5c0-1.04,0.22-1.86,0.67-2.47
			C123.49,162.11,123.96,161.86,124.55,161.86z M124.58,162.18c-0.39,0-0.7,0.19-0.91,0.56c-0.22,0.38-0.33,1.15-0.33,2.33
			c0,1.15,0.11,1.92,0.34,2.3s0.53,0.58,0.91,0.58c0.38,0,0.68-0.18,0.89-0.53c0.25-0.42,0.37-1.2,0.37-2.32
			c0-1.16-0.12-1.94-0.35-2.33C125.26,162.38,124.96,162.18,124.58,162.18z"/>
		<path class="st8" d="M128.5,167.16c-0.14,0.17,0.53,0.26,2.01,0.26c0.22,0,0.38-0.06,0.47-0.17c0.09-0.12,0.2-0.44,0.32-0.96h0.31
			l-0.14,1.84h-3.97v-0.24l1.29-1.47c0.72-0.78,1.15-1.27,1.3-1.47c0.21-0.29,0.36-0.56,0.45-0.83c0.09-0.27,0.14-0.51,0.14-0.73
			c0-0.36-0.1-0.65-0.3-0.86c-0.2-0.21-0.48-0.31-0.84-0.31c-0.4,0-0.73,0.1-0.99,0.29c-0.25,0.19-0.38,0.4-0.38,0.61
			c0,0.07,0.02,0.13,0.06,0.17c0.04,0.04,0.11,0.07,0.23,0.1c0.3,0.07,0.45,0.25,0.45,0.52c0,0.15-0.05,0.28-0.15,0.38
			c-0.1,0.1-0.23,0.15-0.39,0.15c-0.18,0-0.34-0.08-0.48-0.25c-0.14-0.17-0.2-0.38-0.2-0.65c0-0.3,0.08-0.58,0.23-0.82
			s0.39-0.45,0.7-0.61c0.31-0.16,0.65-0.24,1.01-0.24c0.36,0,0.69,0.08,1,0.23c0.31,0.15,0.54,0.36,0.69,0.61
			c0.15,0.25,0.23,0.52,0.23,0.82c0,0.2-0.04,0.41-0.12,0.62c-0.08,0.21-0.19,0.41-0.34,0.59c-0.25,0.32-0.52,0.59-0.79,0.81
			l-1.17,0.99C128.85,166.77,128.63,166.99,128.5,167.16z"/>
		<path class="st8" d="M135.21,161.98v5.54c0,0.08,0.03,0.15,0.09,0.19c0.09,0.06,0.19,0.09,0.32,0.09h0.86v0.33h-3.2v-0.33h0.74
			c0.15,0,0.27-0.04,0.34-0.11c0.07-0.07,0.11-0.17,0.11-0.29v-4.19c0-0.08-0.03-0.16-0.1-0.22c-0.07-0.06-0.16-0.09-0.26-0.09
			h-0.98v-0.31c0.46-0.06,0.84-0.14,1.12-0.24c0.29-0.1,0.54-0.23,0.76-0.39H135.21z"/>
	</g>
</g>
</svg>
